<?xml version="1.0" encoding="utf-8"?>
<!-- Generator: Adobe Illustrator 26.2.1, SVG Export Plug-In . SVG Version: 6.00 Build 0)  -->
<svg version="1.1" id="Calque_1" xmlns="http://www.w3.org/2000/svg" xmlns:xlink="http://www.w3.org/1999/xlink" x="0px" y="0px"
	 viewBox="0 0 32 32" style="enable-background:new 0 0 32 32;" xml:space="preserve">
<style type="text/css">
	.st0{fill:#181716;}
</style>
<path class="st0" d="M31.6,12.9c0,0-12.1,0-12.5,0c-0.3-2.3-1.7-3.4-3.5-3.4c-1.6,0-2.7,0.9-2.7,2c0,0.8,0.4,1.4,1.6,1.7l4.1,0.9
	c0.1,0,0.3,0,0.3,0.1v5.4c-0.2-0.6-0.6-0.9-1.7-1.2l-4.1-0.9c-2.8-0.6-5.3-2.1-5.3-5.7c0-3.8,3.2-6.2,7.8-6.2c3.6,0,6.4,1.5,7.7,4.2
	l6.6-1.5C27.2,3.3,22,0.1,16,0.1C7.2,0.1,0.1,7.2,0.1,16c0,8.8,7.1,15.9,15.9,15.9S31.9,24.8,31.9,16C31.9,14.9,31.8,13.9,31.6,12.9
	z M15.9,26.2c-4.5,0-8.1-2.1-8.6-6l5-1c0.5,2,1.9,2.9,3.9,2.9c1.8,0,2.9-0.8,2.9-2c0-0.2,0-0.4-0.1-0.5h5c0,0.2,0,0.2,0,0.3
	C24,24,20.3,26.2,15.9,26.2z"/>
</svg>
